# xmcd
#
# Track frame offsets:
#	150
#	24178
#	52538
#	75030
#	98574
#	131604
#	157358
#	177001
#	200835
#	224710
#
# Disc length: 3370 seconds
#
# Revision: 1
# Processed by: cddbd v1.5PL3 Copyright (c) Steve Scherf et al.
# Submitted via: EasyCDDAExtractor 7.0.5.1
#
DISCID=790d280a
DTITLE=John Campbell - Howlin Mercy
DYEAR=1993
DGENRE=Blues
TTITLE0=Ain't Afraid of Midnight
TTITLE1=When The Levees Breaks
TTITLE2=Down In The Hole
TTITLE3=Look What Love Can Do
TTITLE4=Saddie Up My Pony
TTITLE5=Finin' Line
TTITLE6=Love's Name
TTITLE7=Written in Stone
TTITLE8=Wiseblood
TTITLE9=Wolf Among the Lambs
EXTD=
EXTT0=
EXTT1=
EXTT2=
EXTT3=
EXTT4=
EXTT5=
EXTT6=
EXTT7=
EXTT8=
EXTT9=
PLAYORDER=
